<svg width="69" height="69" viewBox="0 0 69 69" fill="none" xmlns="http://www.w3.org/2000/svg">
<g filter="url(#filter0_d_75_364)">
<rect x="8" y="6" width="52.5" height="52.5" rx="17" fill="white"/>
</g>
<path fill-rule="evenodd" clip-rule="evenodd" d="M30.0548 17.9995H47.7499V39.19H46.8745V18.8125H30.4188L25.8554 23.0721V26.6983H24.98V22.7366L30.0548 17.9995Z" fill="#FF376E"/>
<path fill-rule="evenodd" clip-rule="evenodd" d="M24.98 39.313H25.8554V44.9364H46.8745V40.0029H47.7499V45.7494H24.98V39.313Z" fill="#FF376E"/>
<path fill-rule="evenodd" clip-rule="evenodd" d="M29.7988 22.5249V18.4062H30.6743V23.3379H25.4175V22.5249H29.7988Z" fill="#FF376E"/>
<path fill-rule="evenodd" clip-rule="evenodd" d="M25.4176 29.4384C24.2089 29.4384 23.229 30.3484 23.229 31.4708C23.229 32.5932 24.2089 33.5032 25.4176 33.5032C26.6264 33.5032 27.6062 32.5932 27.6062 31.4708C27.6062 30.3484 26.6264 29.4384 25.4176 29.4384ZM22.3535 31.4708C22.3535 29.8994 23.7254 28.6255 25.4176 28.6255C27.1099 28.6255 28.4817 29.8994 28.4817 31.4708C28.4817 33.0422 27.1099 34.3161 25.4176 34.3161C23.7254 34.3161 22.3535 33.0422 22.3535 31.4708Z" fill="#FF376E"/>
<path fill-rule="evenodd" clip-rule="evenodd" d="M42.0583 39.5966C41.333 39.5966 40.7451 40.1426 40.7451 40.8161C40.7451 41.4895 41.333 42.0355 42.0583 42.0355C42.7835 42.0355 43.3714 41.4895 43.3714 40.8161C43.3714 40.1426 42.7835 39.5966 42.0583 39.5966ZM39.8696 40.8161C39.8696 39.6936 40.8495 38.7837 42.0583 38.7837C43.267 38.7837 44.2469 39.6936 44.2469 40.8161C44.2469 41.9385 43.267 42.8484 42.0583 42.8484C40.8495 42.8484 39.8696 41.9385 39.8696 40.8161Z" fill="#FF376E"/>
<path fill-rule="evenodd" clip-rule="evenodd" d="M25.4178 26.1826L26.9397 27.1216L28.7657 27.1924L29.4014 28.7834L30.8355 29.8362L30.3413 31.4707L30.8355 33.1053L29.4014 34.1581L28.7657 35.7491L26.9397 35.8199L25.4178 36.7589L23.8959 35.8199L22.07 35.7491L21.4342 34.1581L20 33.1053L20.4943 31.4707L20 29.8362L21.4342 28.7835L22.0699 27.1924L23.8959 27.1216L25.4178 26.1826ZM25.4178 27.1586L24.1767 27.9244L22.6881 27.9821L22.1696 29.2799L21.0006 30.138L21.4036 31.4707L21.0006 32.8035L22.1696 33.6616L22.6882 34.9594L24.1768 35.0172L25.4178 35.7829L26.6588 35.0172L28.1475 34.9594L28.666 33.6616L29.835 32.8035L29.432 31.4707L29.835 30.138L28.6659 29.2799L28.1474 27.982L26.6588 27.9244L25.4178 27.1586Z" fill="#FF376E"/>
<path fill-rule="evenodd" clip-rule="evenodd" d="M23.2334 35.4604H24.1089V39.6472L25.4215 38.8222L26.734 39.6472V35.5355H27.6094V41.1791L25.4214 39.8039L23.2334 41.1791V35.4604Z" fill="#FF376E"/>
<path fill-rule="evenodd" clip-rule="evenodd" d="M33.3008 20.8989H36.3649V21.7119H34.1762V22.5248H43.3716V21.7119H37.2175V20.8989H44.2471V23.3378H33.3008V20.8989Z" fill="#FF376E"/>
<path fill-rule="evenodd" clip-rule="evenodd" d="M44.2442 26.5893H31.9878V25.7764H44.2442V26.5893Z" fill="#FF376E"/>
<path fill-rule="evenodd" clip-rule="evenodd" d="M44.2442 29.8418H31.9878V29.0288H44.2442V29.8418Z" fill="#FF376E"/>
<path fill-rule="evenodd" clip-rule="evenodd" d="M44.2442 33.0932H31.9878V32.2803H44.2442V33.0932Z" fill="#FF376E"/>
<path fill-rule="evenodd" clip-rule="evenodd" d="M44.2442 36.3447H31.9878V35.5317H44.2442V36.3447Z" fill="#FF376E"/>
<path fill-rule="evenodd" clip-rule="evenodd" d="M33.6006 40.1976C33.7977 40.1443 34.0136 40.2868 34.0186 40.4883L33.6006 40.1976ZM33.3555 39.4172C34.1161 39.2112 34.8759 39.745 34.8938 40.4697C34.9021 40.8026 34.8282 41.1019 34.7713 41.3178C34.7652 41.3408 34.7595 41.3623 34.7541 41.3826C34.7538 41.3837 34.7535 41.3848 34.7532 41.3859C34.9713 41.3318 35.2971 41.2271 35.7767 41.0518L36.0975 41.8082C35.4733 42.0364 35.0289 42.1763 34.7235 42.2242C34.5766 42.2473 34.3977 42.2606 34.2303 42.2071C34.1377 42.1776 34.0458 42.1266 33.971 42.0468C33.8971 41.968 33.8582 41.8805 33.8389 41.8025C33.8043 41.6621 33.8265 41.5221 33.8445 41.4319C33.8605 41.3515 33.8848 41.2604 33.907 41.1769C33.9118 41.159 33.9165 41.1415 33.9209 41.1246C33.976 40.9156 34.024 40.7059 34.0186 40.4883M33.3555 39.4172L33.3555 39.4172L33.3555 39.4172ZM32.5666 40.939C32.2283 41.3173 32.0148 41.7059 31.9707 41.9269L31.1099 41.7787C31.1932 41.3614 31.5123 40.8455 31.893 40.4197C32.2738 39.9938 32.7955 39.5688 33.3555 39.4172M32.5666 40.939C32.9047 40.5608 33.2882 40.2822 33.6006 40.1976L32.5666 40.939Z" fill="#FF376E"/>
<defs>
<filter id="filter0_d_75_364" x="0" y="0" width="68.5" height="68.5" filterUnits="userSpaceOnUse" color-interpolation-filters="sRGB">
<feFlood flood-opacity="0" result="BackgroundImageFix"/>
<feColorMatrix in="SourceAlpha" type="matrix" values="0 0 0 0 0 0 0 0 0 0 0 0 0 0 0 0 0 0 127 0" result="hardAlpha"/>
<feOffset dy="2"/>
<feGaussianBlur stdDeviation="4"/>
<feComposite in2="hardAlpha" operator="out"/>
<feColorMatrix type="matrix" values="0 0 0 0 0.0117647 0 0 0 0 0.0509804 0 0 0 0 0.270588 0 0 0 0.03 0"/>
<feBlend mode="normal" in2="BackgroundImageFix" result="effect1_dropShadow_75_364"/>
<feBlend mode="normal" in="SourceGraphic" in2="effect1_dropShadow_75_364" result="shape"/>
</filter>
</defs>
</svg>
