<svg width="69" height="69" viewBox="0 0 69 69" fill="none" xmlns="http://www.w3.org/2000/svg">
<g filter="url(#filter0_d_75_361)">
<rect x="8" y="6" width="52.5" height="52.5" rx="17" fill="white"/>
</g>
<path d="M33.7307 45.7424H24.5957L23.7557 29.4674C23.6507 27.7874 25.0157 26.4224 26.5907 26.4224H31.7357C33.4157 26.4224 34.6757 27.7874 34.5707 29.4674L33.7307 45.7424Z" stroke="#FF376E" stroke-width="1.5" stroke-miterlimit="10" stroke-linecap="round" stroke-linejoin="round"/>
<path d="M32.1559 22.3271H26.1709V26.5271H32.1559V22.3271Z" stroke="#FF376E" stroke-width="1.5" stroke-miterlimit="10" stroke-linecap="round" stroke-linejoin="round"/>
<path d="M31.1059 41.332H27.4309L26.3809 31.252H32.0509L31.1059 41.332Z" stroke="#FF376E" stroke-width="1.5" stroke-miterlimit="10" stroke-linecap="round" stroke-linejoin="round"/>
<path d="M33.8354 43.957H44.3354V28.627C44.3354 27.052 43.0755 25.792 41.5005 25.792H36.9854C35.7254 25.792 34.5704 26.632 34.2554 27.892" stroke="#FF376E" stroke-width="1.5" stroke-miterlimit="10" stroke-linecap="round" stroke-linejoin="round"/>
<path d="M42.4456 25.7919H35.8306V20.1219C38.0356 19.4919 40.2406 19.4919 42.4456 20.1219V25.7919Z" stroke="#FF376E" stroke-width="1.5" stroke-miterlimit="10" stroke-linecap="round" stroke-linejoin="round"/>
<defs>
<filter id="filter0_d_75_361" x="0" y="0" width="68.5" height="68.5" filterUnits="userSpaceOnUse" color-interpolation-filters="sRGB">
<feFlood flood-opacity="0" result="BackgroundImageFix"/>
<feColorMatrix in="SourceAlpha" type="matrix" values="0 0 0 0 0 0 0 0 0 0 0 0 0 0 0 0 0 0 127 0" result="hardAlpha"/>
<feOffset dy="2"/>
<feGaussianBlur stdDeviation="4"/>
<feComposite in2="hardAlpha" operator="out"/>
<feColorMatrix type="matrix" values="0 0 0 0 0.0117647 0 0 0 0 0.0509804 0 0 0 0 0.270588 0 0 0 0.03 0"/>
<feBlend mode="normal" in2="BackgroundImageFix" result="effect1_dropShadow_75_361"/>
<feBlend mode="normal" in="SourceGraphic" in2="effect1_dropShadow_75_361" result="shape"/>
</filter>
</defs>
</svg>
