<svg width="199" height="58" viewBox="0 0 199 58" fill="none" xmlns="http://www.w3.org/2000/svg">
<rect x="53.396" width="14.0517" height="57.2605" fill="#FF376E"/>
<path fill-rule="evenodd" clip-rule="evenodd" d="M51.0475 0C22.3331 3.17769 0 27.5232 0 57.0849L0.000262353 57.2603H14.052C14.0518 57.2019 14.0517 57.1434 14.0517 57.0849C14.0517 34.4865 31.3298 15.9236 53.3963 13.886V0H51.0475Z" fill="#FF376E"/>
<rect width="14.0517" height="57.2605" transform="matrix(-1 0 0 1 86.4175 0.000488281)" fill="#FF376E"/>
<path fill-rule="evenodd" clip-rule="evenodd" d="M88.7659 0C117.48 3.17769 139.813 27.5232 139.813 57.0849L139.813 57.2603H125.761L125.762 57.1296L125.762 57.0849C125.762 34.4865 108.484 15.9236 86.4172 13.886V0H88.7659Z" fill="#FF376E"/>
<rect x="79.3916" y="37.2373" width="48.8295" height="13.3491" fill="#FF376E"/>
<rect x="144.732" y="0.000488281" width="14.0517" height="57.2605" fill="#FF376E"/>
<path fill-rule="evenodd" clip-rule="evenodd" d="M177.91 0.000488281C170.979 11.5399 158.833 19.5902 144.732 20.8923V34.7783H147.081C168.111 32.451 185.718 18.7696 193.636 0.000488281H177.91Z" fill="#FF376E"/>
<path fill-rule="evenodd" clip-rule="evenodd" d="M198.283 57.2607C189.835 36.0605 169.121 21.0776 144.908 21.0776L144.732 21.0779V35.1296C144.79 35.1294 144.849 35.1293 144.908 35.1293C161.147 35.1293 175.302 44.0512 182.739 57.2607H198.283Z" fill="#FF376E"/>
<mask id="path-9-inside-1_75_310" fill="white">
<path fill-rule="evenodd" clip-rule="evenodd" d="M157.714 5.37783C158.42 3.673 158.784 1.84578 158.784 0.000488281H144.732L144.732 14.0521C146.577 14.0521 148.404 13.6887 150.109 12.9825C151.814 12.2764 153.363 11.2413 154.668 9.93651C155.973 8.63169 157.008 7.08265 157.714 5.37783Z"/>
</mask>
<path fill-rule="evenodd" clip-rule="evenodd" d="M157.714 5.37783C158.42 3.673 158.784 1.84578 158.784 0.000488281H144.732L144.732 14.0521C146.577 14.0521 148.404 13.6887 150.109 12.9825C151.814 12.2764 153.363 11.2413 154.668 9.93651C155.973 8.63169 157.008 7.08265 157.714 5.37783Z" fill="white"/>
<path d="M158.784 0.000488281H159.837V-1.05339H158.784V0.000488281ZM157.714 5.37783L156.74 4.97452V4.97453L157.714 5.37783ZM144.732 0.000488281V-1.05339H143.678L143.678 0.000488235L144.732 0.000488281ZM144.732 14.0521H143.678V15.106H144.732V14.0521ZM150.109 12.9825L150.513 13.9562H150.513L150.109 12.9825ZM157.73 0.000488281C157.73 1.70738 157.394 3.39756 156.74 4.97452L158.688 5.78113C159.447 3.94844 159.837 1.98418 159.837 0.000488281H157.73ZM144.732 1.05436H158.784V-1.05339H144.732V1.05436ZM145.786 14.0521L145.786 0.000488327L143.678 0.000488235L143.678 14.0521H145.786ZM149.706 12.0089C148.129 12.6621 146.439 12.9983 144.732 12.9983V15.106C146.716 15.106 148.68 14.7153 150.513 13.9562L149.706 12.0089ZM153.923 9.19131C152.716 10.3983 151.283 11.3557 149.706 12.0089L150.513 13.9562C152.345 13.1971 154.01 12.0844 155.413 10.6817L153.923 9.19131ZM156.74 4.97453C156.087 6.55149 155.13 7.98435 153.923 9.19131L155.413 10.6817C156.816 9.27904 157.929 7.61381 158.688 5.78113L156.74 4.97453Z" fill="#FF376E" mask="url(#path-9-inside-1_75_310)"/>
</svg>
