<svg width="197" height="57" viewBox="0 0 197 57" fill="none" xmlns="http://www.w3.org/2000/svg">
<rect x="52.9067" width="13.9229" height="56.7356" fill="white"/>
<path fill-rule="evenodd" clip-rule="evenodd" d="M50.5776 0C22.1273 3.14945 0 27.2713 0 56.5614L0.000260435 56.7354H13.9232C13.923 56.6774 13.9228 56.6194 13.9228 56.5614C13.9228 34.1701 31.0426 15.7774 52.9068 13.7585V0H50.5776Z" fill="white"/>
<rect width="13.9229" height="56.7356" transform="matrix(-1 0 0 1 85.6255 0)" fill="white"/>
<path fill-rule="evenodd" clip-rule="evenodd" d="M87.957 0.000976562C116.406 3.1515 138.532 27.2729 138.532 56.5621L138.532 56.7361H124.609C124.609 56.6781 124.609 56.6201 124.609 56.5621C124.609 34.1708 107.49 15.7781 85.6254 13.7592V0.000976562H87.957Z" fill="white"/>
<rect x="78.6641" y="36.8965" width="48.3819" height="13.2267" fill="white"/>
<rect x="143.405" width="13.9229" height="56.7356" fill="white"/>
<path fill-rule="evenodd" clip-rule="evenodd" d="M176.279 0C169.411 11.4332 157.377 19.4095 143.405 20.6997V34.4578H145.737C166.572 32.1505 184.016 18.5954 191.86 0H176.279Z" fill="white"/>
<path fill-rule="evenodd" clip-rule="evenodd" d="M196.466 56.736C188.094 35.7302 167.57 20.8848 143.579 20.8848L143.405 20.885V34.808C143.463 34.8077 143.521 34.8076 143.579 34.8076C159.669 34.8076 173.695 43.6477 181.063 56.736H196.466Z" fill="white"/>
<mask id="path-9-inside-1_82_151" fill="white">
<path fill-rule="evenodd" clip-rule="evenodd" d="M143.405 0L143.405 13.9224C145.234 13.9224 147.044 13.5622 148.733 12.8626C150.423 12.1629 151.957 11.1373 153.25 9.84446C154.543 8.55161 155.569 7.01676 156.268 5.32757C156.968 3.63852 157.328 1.82821 157.328 0H143.405Z"/>
</mask>
<path fill-rule="evenodd" clip-rule="evenodd" d="M143.405 0L143.405 13.9224C145.234 13.9224 147.044 13.5622 148.733 12.8626C150.423 12.1629 151.957 11.1373 153.25 9.84446C154.543 8.55161 155.569 7.01676 156.268 5.32757C156.968 3.63852 157.328 1.82821 157.328 0H143.405Z" fill="#FF376E"/>
<path d="M143.405 13.9224H142.361V14.9666H143.405V13.9224ZM143.405 0V-1.04421H142.361V-4.56442e-08L143.405 0ZM148.733 12.8626L149.133 13.8273L148.733 12.8626ZM156.268 5.32757L157.233 5.72717V5.72717L156.268 5.32757ZM157.328 0L158.372 3.59507e-05L158.372 -1.04421H157.328V0ZM144.449 13.9224L144.449 4.56442e-08L142.361 -4.56442e-08L142.361 13.9224H144.449ZM148.334 11.8978C146.771 12.545 145.097 12.8782 143.405 12.8782V14.9666C145.371 14.9666 147.317 14.5795 149.133 13.8273L148.334 11.8978ZM152.512 9.10609C151.316 10.302 149.896 11.2506 148.334 11.8978L149.133 13.8273C150.949 13.0751 152.599 11.9727 153.989 10.5828L152.512 9.10609ZM155.304 4.92796C154.656 6.49047 153.708 7.9102 152.512 9.10609L153.989 10.5828C155.378 9.19302 156.481 7.54306 157.233 5.72717L155.304 4.92796ZM156.284 -3.59507e-05C156.284 1.69106 155.951 3.36559 155.304 4.92796L157.233 5.72717C157.985 3.91144 158.372 1.96536 158.372 3.59507e-05L156.284 -3.59507e-05ZM157.328 -1.04421H143.405V1.04421H157.328V-1.04421Z" fill="white" mask="url(#path-9-inside-1_82_151)"/>
</svg>
