<svg width="300" height="400" viewBox="0 0 300 400" fill="none" xmlns="http://www.w3.org/2000/svg">
<rect x="5" y="5" width="290" height="390" stroke="#FF376E" stroke-width="10"/>
<path d="M120.636 246V237.818L151.364 204.182C154.97 200.242 157.939 196.818 160.273 193.909C162.606 190.97 164.333 188.212 165.455 185.636C166.606 183.03 167.182 180.303 167.182 177.455C167.182 174.182 166.394 171.348 164.818 168.955C163.273 166.561 161.152 164.712 158.455 163.409C155.758 162.106 152.727 161.455 149.364 161.455C145.788 161.455 142.667 162.197 140 163.682C137.364 165.136 135.318 167.182 133.864 169.818C132.439 172.455 131.727 175.545 131.727 179.091H121C121 173.636 122.258 168.848 124.773 164.727C127.288 160.606 130.712 157.394 135.045 155.091C139.409 152.788 144.303 151.636 149.727 151.636C155.182 151.636 160.015 152.788 164.227 155.091C168.439 157.394 171.742 160.5 174.136 164.409C176.53 168.318 177.727 172.667 177.727 177.455C177.727 180.879 177.106 184.227 175.864 187.5C174.652 190.742 172.53 194.364 169.5 198.364C166.5 202.333 162.333 207.182 157 212.909L136.091 235.273V236H179.364V246H120.636Z" fill="#FF376E"/>
</svg>
