<svg width="40" height="40" viewBox="0 0 40 40" fill="none" xmlns="http://www.w3.org/2000/svg">
<g clip-path="url(#clip0_101_25)">
<path d="M26.6665 20.0004C26.6664 18.4581 26.1316 16.9635 25.1532 15.7713C24.1747 14.5791 22.8132 13.763 21.3005 13.4621C19.7878 13.1612 18.2176 13.3941 16.8574 14.1211C15.4972 14.8481 14.4311 16.0242 13.8408 17.4491C13.2505 18.8739 13.1725 20.4594 13.6201 21.9354C14.0677 23.4113 15.0132 24.6864 16.2955 25.5434C17.5778 26.4004 19.1175 26.7863 20.6524 26.6353C22.1873 26.4843 23.6224 25.8058 24.7132 24.7154C25.3325 24.1171 25.8247 23.4 26.1603 22.607C26.496 21.8141 26.6681 20.9615 26.6665 20.1004L26.6648 19.9954L26.6665 20.0004ZM30.2665 20.0004C30.2585 22.3645 29.4315 24.6528 27.9264 26.4758C26.4212 28.2989 24.3308 29.544 22.011 29.9993C19.6911 30.4547 17.2852 30.0921 15.2026 28.9733C13.12 27.8545 11.4894 26.0486 10.5883 23.8629C9.6873 21.6772 9.57147 19.2469 10.2606 16.9854C10.9497 14.724 12.4011 12.7712 14.3678 11.4593C16.3346 10.1475 18.6952 9.55777 21.0478 9.79043C23.4004 10.0231 25.5998 11.0638 27.2715 12.7354C28.221 13.6565 28.9756 14.7591 29.4904 15.9777C30.0052 17.1962 30.2697 18.5059 30.2682 19.8287L30.2665 20.0104V20.0004ZM33.0782 9.32374V9.32707C33.0783 9.88233 32.886 10.4205 32.5339 10.8498C32.1817 11.2791 31.6916 11.5731 31.1471 11.6816C30.6025 11.7901 30.0372 11.7064 29.5474 11.4448C29.0577 11.1832 28.6737 10.7598 28.4611 10.2469C28.2485 9.73397 28.2203 9.16317 28.3813 8.63177C28.5424 8.10038 28.8827 7.64126 29.3443 7.33266C29.8059 7.02406 30.3602 6.88506 30.9128 6.93935C31.4654 6.99364 31.9821 7.23786 32.3748 7.6304C32.8015 8.04874 33.0665 8.63207 33.0665 9.27707V9.3254L33.0782 9.32374ZM20.0115 3.5904L18.0198 3.57707C16.8132 3.56818 15.8971 3.56818 15.2715 3.57707C14.6459 3.58596 13.8082 3.61207 12.7582 3.6554C11.7832 3.68874 10.8582 3.7854 9.95317 3.93874L10.0748 3.92207C9.3665 4.03874 8.73816 4.2054 8.1365 4.42707L8.20817 4.40374C7.35832 4.74567 6.58548 5.2542 5.93516 5.89937C5.28484 6.54453 4.77018 7.3133 4.4215 8.1604L4.40483 8.2054C4.19114 8.791 4.03267 9.3953 3.9315 10.0104L3.92316 10.0721C3.77612 10.948 3.6876 11.8327 3.65816 12.7204L3.6565 12.7554C3.61316 13.8065 3.58705 14.6443 3.57816 15.2687C3.56928 15.8932 3.56928 16.8093 3.57816 18.0171C3.58705 19.2248 3.5915 19.8887 3.5915 20.0087C3.5915 20.1287 3.58705 20.7926 3.57816 22.0004C3.56928 23.2082 3.56928 24.1243 3.57816 24.7487C3.58705 25.3732 3.61316 26.211 3.6565 27.2621C3.68983 28.2371 3.7865 29.1621 3.93983 30.0671L3.92316 29.9454C4.03983 30.6537 4.2065 31.2821 4.42816 31.8837L4.40483 31.8121C4.74677 32.6619 5.25529 33.4348 5.90046 34.0851C6.54563 34.7354 7.3144 35.2501 8.1615 35.5987L8.2065 35.6154C8.7365 35.8137 9.36483 35.9804 10.0115 36.0887L10.0732 36.0971C10.8548 36.2337 11.7798 36.3304 12.7198 36.3621L12.7548 36.3637C13.8059 36.4071 14.6437 36.4332 15.2682 36.4421C15.8926 36.451 16.8087 36.451 18.0165 36.4421L19.9965 36.4021L21.9882 36.4154C23.1948 36.4243 24.1109 36.4243 24.7365 36.4154C25.3621 36.4065 26.1998 36.3804 27.2498 36.3371C28.2248 36.3037 29.1498 36.2071 30.0548 36.0537L29.9332 36.0704C30.6415 35.9537 31.2698 35.7871 31.8715 35.5654L31.7998 35.5887C32.6497 35.2468 33.4225 34.7383 34.0728 34.0931C34.7232 33.4479 35.2378 32.6792 35.5865 31.8321L35.6032 31.7871C35.8015 31.2571 35.9682 30.6287 36.0765 29.9821L36.0848 29.9204C36.2215 29.1387 36.3182 28.2137 36.3498 27.2737L36.3515 27.2387C36.3948 26.1876 36.4209 25.3498 36.4298 24.7254C36.4387 24.101 36.4387 23.1848 36.4298 21.9771C36.4209 20.7693 36.4165 20.1054 36.4165 19.9854C36.4165 19.8654 36.4209 19.2015 36.4298 17.9937C36.4387 16.786 36.4387 15.8698 36.4298 15.2454C36.4209 14.621 36.3948 13.7832 36.3515 12.7321C36.3182 11.7571 36.2215 10.8321 36.0682 9.92707L36.0848 10.0487C35.9787 9.38801 35.8095 8.73895 35.5798 8.1104L35.6032 8.18207C35.2612 7.33222 34.7527 6.55938 34.1075 5.90906C33.4624 5.25874 32.6936 4.74409 31.8465 4.3954L31.8015 4.37874C31.2159 4.16505 30.6116 4.00658 29.9965 3.9054L29.9348 3.89707C29.0595 3.7501 28.1753 3.66158 27.2882 3.63207L27.2532 3.6304C26.2021 3.58707 25.3643 3.56096 24.7398 3.55207C24.1154 3.54318 23.1993 3.54318 21.9915 3.55207L20.0115 3.5904ZM39.9998 20.0004C39.9998 23.976 39.9554 26.7276 39.8665 28.2554C39.9453 29.8037 39.6979 31.3513 39.1403 32.7979C38.5827 34.2444 37.7275 35.5577 36.6299 36.6526C35.5323 37.7475 34.217 38.5996 32.769 39.1536C31.3211 39.7077 29.7729 39.9513 28.2248 39.8687L28.2515 39.8704C26.7237 39.9593 23.9721 40.0037 19.9965 40.0037C16.0209 40.0037 13.2693 39.9593 11.7415 39.8704C10.1932 39.9492 8.64561 39.7018 7.19904 39.1442C5.75247 38.5867 4.43918 37.7314 3.34429 36.6338C2.24939 35.5362 1.39732 34.2209 0.843281 32.773C0.289246 31.325 0.0456106 29.7768 0.128164 28.2287L0.126497 28.2554C0.0376085 26.7276 -0.00683594 23.976 -0.00683594 20.0004C-0.00683594 16.0248 0.0376085 13.2732 0.126497 11.7454C0.0477165 10.1971 0.295123 8.64952 0.852686 7.20295C1.41025 5.75637 2.26552 4.44309 3.36309 3.34819C4.46066 2.2533 5.77602 1.40122 7.22395 0.847188C8.67188 0.293152 10.2201 0.0495168 11.7682 0.13207L11.7415 0.130404C13.2693 0.0415148 16.0209 -0.00292969 19.9965 -0.00292969C23.9721 -0.00292969 26.7237 0.0415148 28.2515 0.130404C29.7998 0.0516227 31.3474 0.29903 32.794 0.856592C34.2405 1.41415 35.5538 2.26943 36.6487 3.367C37.7436 4.46456 38.5957 5.77993 39.1497 7.22786C39.7037 8.67578 39.9474 10.224 39.8648 11.7721L39.8665 11.7454C39.9554 13.2721 39.9998 16.0237 39.9998 20.0004Z" fill="white"/>
</g>
<defs>
<clipPath id="clip0_101_25">
<rect width="40" height="40" fill="white"/>
</clipPath>
</defs>
</svg>
