<svg width="40" height="40" viewBox="0 0 40 40" fill="none" xmlns="http://www.w3.org/2000/svg">
<g clip-path="url(#clip0_101_18)">
<mask id="mask0_101_18" style="mask-type:luminance" maskUnits="userSpaceOnUse" x="0" y="0" width="40" height="40">
<path d="M0 0H40V40H0V0Z" fill="white"/>
</mask>
<g mask="url(#mask0_101_18)">
<path d="M0.0952148 40.0001L2.90688 29.7284C1.16933 26.715 0.256999 23.2968 0.261882 19.8184C0.266882 8.89173 9.15855 5.9465e-05 20.0835 5.9465e-05C22.689 -0.00634206 25.2699 0.50417 27.6768 1.50204C30.0836 2.49991 32.2686 3.96531 34.1052 5.81339C35.9511 7.65132 37.4141 9.83707 38.4097 12.2442C39.4053 14.6513 39.9136 17.2319 39.9052 19.8367C39.9002 30.7651 31.0085 39.6567 20.0835 39.6567C16.7716 39.6564 13.5125 38.8267 10.6035 37.2434L0.0952148 40.0001ZM11.0902 33.6551C13.8835 35.3134 16.5502 36.3067 20.0769 36.3084C29.1569 36.3084 36.5535 28.9184 36.5585 19.8334C36.5619 10.7301 29.2002 3.35006 20.0902 3.34673C11.0035 3.34673 3.61188 10.7367 3.60688 19.8201C3.60688 23.5284 4.69355 26.3051 6.51855 29.2101L4.85188 35.2901L11.0902 33.6551ZM30.0685 24.5484C29.9452 24.3417 29.6152 24.2184 29.1185 23.9701C28.6219 23.7217 26.1885 22.5234 25.7335 22.3584C25.2802 22.1934 24.9502 22.1101 24.6169 22.6067C24.2885 23.1017 23.3385 24.2184 23.0502 24.5484C22.7619 24.8784 22.4719 24.9201 21.9769 24.6717C21.4819 24.4234 19.8852 23.9017 17.9935 22.2134C16.5219 20.9001 15.5269 19.2784 15.2385 18.7817C14.9502 18.2867 15.2085 18.0184 15.4552 17.7717C15.6785 17.5501 15.9502 17.1934 16.1985 16.9034C16.4485 16.6167 16.5319 16.4101 16.6985 16.0784C16.8635 15.7484 16.7819 15.4584 16.6569 15.2101C16.5319 14.9634 15.5402 12.5251 15.1302 11.5334C14.7269 10.5684 14.3185 10.6984 14.0135 10.6834L13.0635 10.6667C12.7352 10.6667 12.1969 10.7901 11.7452 11.2867C11.2919 11.7834 10.0119 12.9801 10.0119 15.4184C10.0119 17.8567 11.7869 20.2117 12.0335 20.5417C12.2802 20.8717 15.5252 25.8751 20.4935 28.0201C21.6752 28.5301 22.5985 28.8351 23.3169 29.0634C24.5035 29.4401 25.5835 29.3867 26.4369 29.2601C27.3869 29.1184 29.3669 28.0617 29.7802 26.9051C30.1935 25.7484 30.1935 24.7551 30.0685 24.5484Z" fill="white"/>
</g>
</g>
<defs>
<clipPath id="clip0_101_18">
<rect width="40" height="40" fill="white"/>
</clipPath>
</defs>
</svg>
